<svg width="18" height="18" viewBox="0 0 18 18" fill="none" xmlns="http://www.w3.org/2000/svg">
<path d="M17.329 16.4627L13.2217 12.3562C14.4122 10.927 15.0058 9.09383 14.8791 7.23808C14.7524 5.38232 13.9152 3.64685 12.5415 2.39269C11.1678 1.13852 9.36352 0.46223 7.50392 0.504492C5.64433 0.546755 3.87261 1.30432 2.55734 2.61959C1.24206 3.93487 0.484499 5.70658 0.442237 7.56618C0.399974 9.42578 1.07627 11.2301 2.33043 12.6037C3.58459 13.9774 5.32006 14.8147 7.17582 14.9414C9.03158 15.0681 10.8647 14.4745 12.294 13.284L16.4005 17.3913C16.4614 17.4523 16.5338 17.5006 16.6135 17.5336C16.6931 17.5666 16.7785 17.5836 16.8647 17.5836C16.951 17.5836 17.0364 17.5666 17.116 17.5336C17.1957 17.5006 17.2681 17.4523 17.329 17.3913C17.39 17.3303 17.4384 17.2579 17.4714 17.1783C17.5044 17.0986 17.5214 17.0132 17.5214 16.927C17.5214 16.8408 17.5044 16.7554 17.4714 16.6757C17.4384 16.5961 17.39 16.5237 17.329 16.4627ZM1.771 7.73951C1.771 6.57136 2.1174 5.42945 2.76638 4.45817C3.41537 3.48689 4.3378 2.72987 5.41703 2.28284C6.49625 1.83581 7.6838 1.71885 8.8295 1.94674C9.9752 2.17464 11.0276 2.73715 11.8536 3.56316C12.6796 4.38916 13.2421 5.44155 13.47 6.58725C13.6979 7.73295 13.5809 8.9205 13.1339 9.99973C12.6869 11.079 11.9299 12.0014 10.9586 12.6504C9.98731 13.2994 8.8454 13.6458 7.67725 13.6458C6.11135 13.644 4.61008 13.0212 3.50282 11.9139C2.39556 10.8067 1.77274 9.30541 1.771 7.73951Z" fill="#9095A1"/>
</svg>
